<svg xmlns="http://www.w3.org/2000/svg" width="570" height="143" viewBox="0 0 570 143" fill="none"><g clip-path="url(#clip0_1627_2012)"><path fill-rule="evenodd" clip-rule="evenodd" d="M126.857 107.306C134.833 102.701 137.59 92.4088 132.984 84.4349L108.256 41.6019C103.65 33.628 93.3578 30.8685 85.3839 35.4741C77.41 40.0797 74.6505 50.3718 79.2561 58.3457L103.985 101.179C108.588 109.155 118.883 111.912 126.857 107.306Z" fill="#195ABE"></path><path fill-rule="evenodd" clip-rule="evenodd" d="M83.5094 101.215L83.5262 101.187L108.255 58.3541C112.858 50.3802 110.101 40.0881 102.127 35.4825C94.1507 30.8769 83.8586 33.6363 79.2557 41.6102L69.0391 59.3065L82.2442 85.7363C85.0065 91.2692 86.4085 96.1904 83.5094 101.215Z" fill="#149AC5"></path><path fill-rule="evenodd" clip-rule="evenodd" d="M95.0614 33.2985C100.262 33.6979 105.2 36.4964 108.099 41.2277L108.105 41.2389C108.172 41.3506 108.239 41.4623 108.306 41.5768L108.308 41.5824C111.208 46.6042 111.437 53.0057 108.345 58.3626L93.8352 83.4909L79.323 58.3542C76.3205 53.1509 76.449 46.9589 79.1191 42.0069L79.3425 41.6187C82.641 35.9015 88.8638 32.8656 95.0614 33.2985Z" fill="#63CDEE"></path><path fill-rule="evenodd" clip-rule="evenodd" d="M77.4282 107.306C69.1917 111.423 59.1454 109.161 54.5565 101.179L42.0552 79.441C35.6035 68.2217 25.7331 62.6693 12.2012 72.129C15.2427 66.8615 23.9652 50.5031 29.5958 41.7751C31.5648 38.7251 33.9361 36.5801 35.9665 35.4909C44.2337 31.0501 53.984 33.209 58.8382 41.6187L83.5587 84.4349C88.1588 92.4116 85.4021 102.701 77.4282 107.306Z" fill="#195ABE"></path><path fill-rule="evenodd" clip-rule="evenodd" d="M70.2625 109.496C75.463 109.1 80.401 106.298 83.3001 101.567L83.3057 101.556C83.3755 101.444 83.4398 101.332 83.5068 101.218L83.5096 101.212C86.4087 96.1904 86.6377 89.7889 83.5459 84.432L69.0364 59.3037L54.5242 84.4404C51.5217 89.6437 51.6502 95.8357 54.3203 100.788L54.5437 101.173C57.845 106.893 64.0649 109.929 70.2625 109.496Z" fill="#63CDEE"></path><path fill-rule="evenodd" clip-rule="evenodd" d="M22.4387 109.535C30.7981 109.535 37.6157 102.718 37.6157 94.3583C37.6157 85.9989 30.7981 79.1813 22.4387 79.1813C14.0794 79.1813 7.26172 85.9989 7.26172 94.3583C7.26172 102.718 14.0794 109.535 22.4387 109.535Z" fill="#195ABE"></path></g><path fill-rule="evenodd" clip-rule="evenodd" d="M220.617 48.976V100.21H210.339V66.8957L196.62 100.21H188.844L175.036 66.8957V100.21H164.758V48.976H176.421L192.732 87.0721L209.021 48.976H220.617Z" fill="#195ABE"></path><path fill-rule="evenodd" clip-rule="evenodd" d="M234.451 54.696C232.642 54.696 231.144 54.115 229.938 52.9755C228.731 51.836 228.15 50.3836 228.15 48.6855C228.15 46.965 228.754 45.535 229.938 44.3955C231.144 43.256 232.642 42.675 234.451 42.675C236.261 42.675 237.758 43.256 238.965 44.3955C240.171 45.535 240.752 46.965 240.752 48.6855C240.752 50.406 240.149 51.836 238.965 52.9755C237.758 54.1374 236.261 54.696 234.451 54.696ZM239.501 59.5446V100.21H229.223V59.5446H239.501Z" fill="#195ABE"></path><path fill-rule="evenodd" clip-rule="evenodd" d="M270.646 58.9637C275.495 58.9637 279.405 60.4831 282.399 63.5442C285.393 66.6053 286.868 70.8729 286.868 76.3471V100.21H276.59V77.7548C276.59 74.5149 275.785 72.0348 274.177 70.3143C272.568 68.5715 270.356 67.7001 267.563 67.7001C264.725 67.7001 262.491 68.5715 260.837 70.3143C259.206 72.0571 258.38 74.5373 258.38 77.7548V100.21H248.102V59.5446H258.38V64.6167C259.743 62.8515 261.508 61.4662 263.63 60.4607C265.775 59.4553 268.099 58.9637 270.646 58.9637Z" fill="#195ABE"></path><path fill-rule="evenodd" clip-rule="evenodd" d="M292.475 79.721C292.475 75.6097 293.301 71.9677 294.932 68.7949C296.563 65.622 298.82 63.1642 301.658 61.4661C304.496 59.7456 307.646 58.8966 311.132 58.8966C313.768 58.8966 316.293 59.4775 318.684 60.617C321.075 61.7566 322.996 63.2983 324.404 65.1975V45.8925H334.816V100.21H324.404V94.1997C323.13 96.2106 321.343 97.8194 319.041 99.0483C316.74 100.277 314.081 100.88 311.042 100.88C307.624 100.88 304.496 100.009 301.658 98.2439C298.82 96.4788 296.586 93.9986 294.932 90.8035C293.301 87.5636 292.475 83.8992 292.475 79.721ZM324.471 79.8774C324.471 77.3749 323.979 75.2522 322.996 73.4647C322.013 71.6772 320.695 70.3142 319.041 69.3535C317.388 68.3927 315.6 67.9235 313.679 67.9235C311.78 67.9235 310.014 68.3927 308.383 69.3088C306.775 70.2472 305.456 71.5878 304.451 73.3753C303.445 75.1628 302.954 77.2855 302.954 79.721C302.954 82.1564 303.445 84.3014 304.451 86.1336C305.456 87.9658 306.775 89.3735 308.406 90.3566C310.037 91.3397 311.802 91.8313 313.656 91.8313C315.556 91.8313 317.343 91.362 319.019 90.4013C320.672 89.4405 322.013 88.0775 322.974 86.29C323.979 84.5025 324.471 82.3799 324.471 79.8774Z" fill="#195ABE"></path><path fill-rule="evenodd" clip-rule="evenodd" d="M367.15 100.724C362.413 100.724 358.078 99.6069 354.168 97.3949C350.258 95.1605 347.152 92.0547 344.895 88.0775C342.616 84.1003 341.477 79.6093 341.477 74.6043C341.477 69.6216 342.616 65.1305 344.895 61.131C347.174 57.1538 350.258 54.0257 354.168 51.8136C358.078 49.5793 362.413 48.4844 367.15 48.4844C371.953 48.4844 376.288 49.6016 380.221 51.8136C384.131 54.048 387.214 57.1314 389.471 61.0863C391.728 65.0411 392.845 69.5546 392.845 74.5819C392.845 79.6316 391.728 84.1227 389.471 88.0775C387.214 92.0324 384.131 95.1381 380.221 97.3502C376.288 99.6069 371.931 100.724 367.15 100.724ZM367.15 94.9147C370.725 94.9147 373.942 94.088 376.802 92.4122C379.662 90.7365 381.919 88.368 383.55 85.2846C385.181 82.2011 386.008 78.6261 386.008 74.5596C386.008 70.4483 385.181 66.8733 383.55 63.8122C381.919 60.7511 379.662 58.3827 376.824 56.7293C373.987 55.0758 370.769 54.2267 367.127 54.2267C363.507 54.2267 360.268 55.0535 357.43 56.7293C354.592 58.3827 352.358 60.7511 350.704 63.8122C349.073 66.8733 348.247 70.4483 348.247 74.5596C348.247 78.6261 349.073 82.2011 350.704 85.2846C352.336 88.368 354.592 90.7365 357.452 92.4122C360.357 94.088 363.575 94.9147 367.15 94.9147Z" fill="#195ABE"></path><path fill-rule="evenodd" clip-rule="evenodd" d="M406.605 66.5158C407.79 64.2144 409.465 62.4269 411.633 61.1533C413.8 59.8797 416.459 59.254 419.587 59.254V66.1583H417.822C410.337 66.1583 406.583 70.2248 406.583 78.3356V100.21H399.902V59.9914H406.583V66.5158H406.605Z" fill="#195ABE"></path><path fill-rule="evenodd" clip-rule="evenodd" d="M432.304 67.4766C433.667 65.0858 435.678 63.1195 438.314 61.6002C440.951 60.0808 443.967 59.3211 447.341 59.3211C450.961 59.3211 454.223 60.1702 457.105 61.8906C459.988 63.6111 462.267 66.0019 463.92 69.13C465.574 72.2358 466.423 75.8555 466.423 79.9444C466.423 84.011 465.596 87.6307 463.92 90.8035C462.267 93.9763 459.965 96.4564 457.061 98.2216C454.156 99.9867 450.916 100.858 447.341 100.858C443.856 100.858 440.817 100.098 438.203 98.5791C435.588 97.0597 433.622 95.1382 432.304 92.7921V100.21H425.623V45.8925H432.304V67.4766ZM459.586 79.9444C459.586 76.9057 458.982 74.2691 457.753 72.0124C456.524 69.7556 454.871 68.0575 452.793 66.8733C450.715 65.6891 448.436 65.1082 445.934 65.1082C443.476 65.1082 441.219 65.7114 439.141 66.918C437.063 68.1246 435.387 69.845 434.158 72.1241C432.907 74.4032 432.282 77.0397 432.282 80.0114C432.282 83.0502 432.907 85.7091 434.158 87.9658C435.41 90.2449 437.063 91.9877 439.141 93.1719C441.219 94.3785 443.476 94.9594 445.934 94.9594C448.436 94.9594 450.715 94.3561 452.793 93.1719C454.871 91.9653 456.524 90.2449 457.753 87.9658C458.982 85.7091 459.586 83.0278 459.586 79.9444Z" fill="#195ABE"></path><path fill-rule="evenodd" clip-rule="evenodd" d="M476.972 53.4671C475.699 53.4671 474.626 53.0202 473.732 52.1488C472.861 51.2774 472.414 50.1825 472.414 48.9313C472.414 47.6577 472.861 46.5852 473.732 45.6914C474.604 44.82 475.699 44.3732 476.972 44.3732C478.201 44.3732 479.229 44.82 480.1 45.6914C480.949 46.5628 481.374 47.6577 481.374 48.9313C481.374 50.2049 480.949 51.2774 480.1 52.1488C479.251 53.0202 478.201 53.4671 476.972 53.4671ZM480.212 59.9914V100.21H473.531V59.9914H480.212Z" fill="#195ABE"></path><path fill-rule="evenodd" clip-rule="evenodd" d="M498.042 65.4881V89.1948C498.042 91.161 498.467 92.524 499.294 93.3507C500.12 94.1551 501.573 94.5573 503.628 94.5573H508.544V100.21H502.533C498.824 100.21 496.031 99.3612 494.177 97.6407C492.322 95.9203 491.384 93.1049 491.384 89.1948V65.4881H486.178V59.9915H491.384V49.8698H498.065V59.9915H508.566V65.4881H498.042Z" fill="#195ABE"></path><path fill-rule="evenodd" clip-rule="evenodd" d="M512.406 79.9444C512.406 75.8332 513.233 72.2358 514.909 69.13C516.562 66.0243 518.864 63.6111 521.768 61.8907C524.673 60.1702 527.913 59.3211 531.488 59.3211C535.018 59.3211 538.079 60.0808 540.671 61.6002C543.263 63.1196 545.207 65.0188 546.48 67.3202V59.9914H553.228V100.21H546.48V92.725C545.162 95.0711 543.196 97.015 540.582 98.5568C537.967 100.098 534.929 100.858 531.443 100.858C527.868 100.858 524.651 99.9867 521.746 98.2216C518.864 96.4564 516.584 93.9986 514.931 90.8035C513.233 87.6307 512.406 84.011 512.406 79.9444ZM546.458 80.0338C546.458 76.995 545.855 74.3585 544.626 72.1017C543.397 69.845 541.744 68.1246 539.666 66.918C537.588 65.7114 535.309 65.1082 532.806 65.1082C530.304 65.1082 528.025 65.6891 525.991 66.8733C523.936 68.0575 522.304 69.7557 521.076 72.0124C519.847 74.2691 519.243 76.9057 519.243 79.9444C519.243 83.0279 519.847 85.7091 521.076 87.9881C522.304 90.2672 523.936 92.01 525.991 93.1942C528.047 94.4008 530.326 94.9818 532.806 94.9818C535.309 94.9818 537.588 94.3785 539.666 93.1942C541.744 91.9877 543.397 90.2672 544.626 87.9881C545.855 85.7091 546.458 83.0502 546.458 80.0338Z" fill="#195ABE"></path><path d="M569.501 45.8925H562.82V100.21H569.501V45.8925Z" fill="#195ABE"></path><defs><clipPath id="clip0_1627_2012"><rect width="143" height="143" fill="white"></rect></clipPath></defs></svg>